# MagicaVoxel @ Ephtracy

# group
g tower

# material
mtllib tower.mtl
usemtl palette

# normals
vn -1 0 0
vn 1 0 0
vn 0 0 1
vn 0 0 -1
vn 0 -1 0
vn 0 1 0

# texcoords
vt 0.537109 0.5
vt 0.701172 0.5
vt 0.986328 0.5
vt 0.990234 0.5

# verts
v -20 0 20
v -20 0 -20
v -20 10 10
v -20 10 -10
v -20 11 9
v -20 11 -9
v -20 29 9
v -20 29 -9
v -20 30 10
v -20 30 -10
v -20 36 13
v -20 36 11
v -20 36 8
v -20 36 6
v -20 36 3
v -20 36 1
v -20 36 -2
v -20 36 -4
v -20 36 -7
v -20 36 -9
v -20 36 -12
v -20 36 -14
v -20 40 20
v -20 40 13
v -20 40 11
v -20 40 8
v -20 40 6
v -20 40 3
v -20 40 1
v -20 40 -2
v -20 40 -4
v -20 40 -7
v -20 40 -9
v -20 40 -12
v -20 40 -14
v -20 40 -20
v -12 36 20
v -12 36 16
v -12 40 20
v -12 40 16
v -11 36 -16
v -11 36 -20
v -11 40 -16
v -11 40 -20
v -7 36 20
v -7 36 16
v -7 40 20
v -7 40 16
v -6 36 -16
v -6 36 -20
v -6 40 -16
v -6 40 -20
v -2 36 20
v -2 36 16
v -2 40 20
v -2 40 16
v -1 36 -16
v -1 36 -20
v -1 40 -16
v -1 40 -20
v 3 36 20
v 3 36 16
v 3 40 20
v 3 40 16
v 4 36 -16
v 4 36 -20
v 4 40 -16
v 4 40 -20
v 8 36 20
v 8 36 16
v 8 40 20
v 8 40 16
v 9 36 -16
v 9 36 -20
v 9 40 -16
v 9 40 -20
v 13 36 20
v 13 36 16
v 13 40 20
v 13 40 16
v 14 36 -16
v 14 36 -20
v 14 40 -16
v 14 40 -20
v 16 32 16
v 16 32 -16
v 16 36 14
v 16 36 12
v 16 36 9
v 16 36 7
v 16 36 4
v 16 36 2
v 16 36 -1
v 16 36 -3
v 16 36 -6
v 16 36 -8
v 16 36 -11
v 16 36 -13
v 16 40 16
v 16 40 14
v 16 40 12
v 16 40 9
v 16 40 7
v 16 40 4
v 16 40 2
v 16 40 -1
v 16 40 -3
v 16 40 -6
v 16 40 -8
v 16 40 -11
v 16 40 -13
v 16 40 -16
v -16 32 16
v -16 32 -16
v -16 36 13
v -16 36 11
v -16 36 8
v -16 36 6
v -16 36 3
v -16 36 1
v -16 36 -2
v -16 36 -4
v -16 36 -7
v -16 36 -9
v -16 36 -12
v -16 36 -14
v -16 40 16
v -16 40 13
v -16 40 11
v -16 40 8
v -16 40 6
v -16 40 3
v -16 40 1
v -16 40 -2
v -16 40 -4
v -16 40 -7
v -16 40 -9
v -16 40 -12
v -16 40 -14
v -16 40 -16
v -14 36 20
v -14 36 16
v -14 40 20
v -14 40 16
v -13 36 -16
v -13 36 -20
v -13 40 -16
v -13 40 -20
v -9 36 20
v -9 36 16
v -9 40 20
v -9 40 16
v -8 36 -16
v -8 36 -20
v -8 40 -16
v -8 40 -20
v -4 36 20
v -4 36 16
v -4 40 20
v -4 40 16
v -3 36 -16
v -3 36 -20
v -3 40 -16
v -3 40 -20
v 1 36 20
v 1 36 16
v 1 40 20
v 1 40 16
v 2 36 -16
v 2 36 -20
v 2 40 -16
v 2 40 -20
v 6 36 20
v 6 36 16
v 6 40 20
v 6 40 16
v 7 36 -16
v 7 36 -20
v 7 40 -16
v 7 40 -20
v 11 36 20
v 11 36 16
v 11 40 20
v 11 40 16
v 12 36 -16
v 12 36 -20
v 12 40 -16
v 12 40 -20
v 20 0 20
v 20 0 8
v 20 0 7
v 20 0 6
v 20 0 5
v 20 0 4
v 20 0 3
v 20 0 2
v 20 0 1
v 20 0 -1
v 20 0 -2
v 20 0 -3
v 20 0 -4
v 20 0 -5
v 20 0 -6
v 20 0 -7
v 20 0 -8
v 20 0 -20
v 20 14 8
v 20 14 7
v 20 14 6
v 20 14 -6
v 20 14 -7
v 20 14 -8
v 20 15 7
v 20 15 6
v 20 15 5
v 20 15 -5
v 20 15 -6
v 20 15 -7
v 20 16 6
v 20 16 5
v 20 16 4
v 20 16 -4
v 20 16 -5
v 20 16 -6
v 20 17 5
v 20 17 4
v 20 17 3
v 20 17 2
v 20 17 1
v 20 17 -1
v 20 17 -2
v 20 17 -3
v 20 17 -4
v 20 17 -5
v 20 18 4
v 20 18 -4
v 20 36 14
v 20 36 12
v 20 36 9
v 20 36 7
v 20 36 4
v 20 36 2
v 20 36 -1
v 20 36 -3
v 20 36 -6
v 20 36 -8
v 20 36 -11
v 20 36 -13
v 20 40 20
v 20 40 14
v 20 40 12
v 20 40 9
v 20 40 7
v 20 40 4
v 20 40 2
v 20 40 -1
v 20 40 -3
v 20 40 -6
v 20 40 -8
v 20 40 -11
v 20 40 -13
v 20 40 -20
v -20 0 20
v -20 40 20
v -14 36 20
v -14 40 20
v -12 36 20
v -12 40 20
v -9 36 20
v -9 40 20
v -7 36 20
v -7 40 20
v -4 36 20
v -4 40 20
v -2 36 20
v -2 40 20
v 1 36 20
v 1 40 20
v 3 36 20
v 3 40 20
v 6 36 20
v 6 40 20
v 8 36 20
v 8 40 20
v 11 36 20
v 11 40 20
v 13 36 20
v 13 40 20
v 20 0 20
v 20 40 20
v 16 36 12
v 16 40 12
v 20 36 12
v 20 40 12
v -20 36 11
v -20 40 11
v -16 36 11
v -16 40 11
v 16 36 7
v 16 40 7
v 20 36 7
v 20 40 7
v -20 36 6
v -20 40 6
v -16 36 6
v -16 40 6
v 16 36 2
v 16 40 2
v 20 36 2
v 20 40 2
v -20 36 1
v -20 40 1
v -16 36 1
v -16 40 1
v 16 36 -3
v 16 40 -3
v 20 36 -3
v 20 40 -3
v -20 36 -4
v -20 40 -4
v -16 36 -4
v -16 40 -4
v 16 36 -8
v 16 40 -8
v 20 36 -8
v 20 40 -8
v -20 36 -9
v -20 40 -9
v -16 36 -9
v -16 40 -9
v 16 36 -13
v 16 40 -13
v 20 36 -13
v 20 40 -13
v -20 36 -14
v -20 40 -14
v -16 36 -14
v -16 40 -14
v -16 32 -16
v -16 40 -16
v -13 36 -16
v -13 40 -16
v -11 36 -16
v -11 40 -16
v -8 36 -16
v -8 40 -16
v -6 36 -16
v -6 40 -16
v -3 36 -16
v -3 40 -16
v -1 36 -16
v -1 40 -16
v 2 36 -16
v 2 40 -16
v 4 36 -16
v 4 40 -16
v 7 36 -16
v 7 40 -16
v 9 36 -16
v 9 40 -16
v 12 36 -16
v 12 40 -16
v 14 36 -16
v 14 40 -16
v 16 32 -16
v 16 40 -16
v -16 32 16
v -16 40 16
v -14 36 16
v -14 40 16
v -12 36 16
v -12 40 16
v -9 36 16
v -9 40 16
v -7 36 16
v -7 40 16
v -4 36 16
v -4 40 16
v -2 36 16
v -2 40 16
v 1 36 16
v 1 40 16
v 3 36 16
v 3 40 16
v 6 36 16
v 6 40 16
v 8 36 16
v 8 40 16
v 11 36 16
v 11 40 16
v 13 36 16
v 13 40 16
v 16 32 16
v 16 40 16
v 16 36 14
v 16 40 14
v 20 36 14
v 20 40 14
v -20 36 13
v -20 40 13
v -16 36 13
v -16 40 13
v 16 36 9
v 16 40 9
v 20 36 9
v 20 40 9
v -20 36 8
v -20 40 8
v -16 36 8
v -16 40 8
v 16 36 4
v 16 40 4
v 20 36 4
v 20 40 4
v -20 36 3
v -20 40 3
v -16 36 3
v -16 40 3
v 16 36 -1
v 16 40 -1
v 20 36 -1
v 20 40 -1
v -20 36 -2
v -20 40 -2
v -16 36 -2
v -16 40 -2
v 16 36 -6
v 16 40 -6
v 20 36 -6
v 20 40 -6
v -20 36 -7
v -20 40 -7
v -16 36 -7
v -16 40 -7
v 16 36 -11
v 16 40 -11
v 20 36 -11
v 20 40 -11
v -20 36 -12
v -20 40 -12
v -16 36 -12
v -16 40 -12
v -20 0 -20
v -20 40 -20
v -13 36 -20
v -13 40 -20
v -11 36 -20
v -11 40 -20
v -8 36 -20
v -8 40 -20
v -6 36 -20
v -6 40 -20
v -3 36 -20
v -3 40 -20
v -1 36 -20
v -1 40 -20
v 2 36 -20
v 2 40 -20
v 4 36 -20
v 4 40 -20
v 7 36 -20
v 7 40 -20
v 9 36 -20
v 9 40 -20
v 12 36 -20
v 12 40 -20
v 14 36 -20
v 14 40 -20
v 20 0 -20
v 20 40 -20
v -20 0 20
v 20 0 20
v 19 0 8
v 20 0 8
v 19 0 7
v 20 0 7
v 19 0 6
v 20 0 6
v 19 0 5
v 20 0 5
v 19 0 4
v 20 0 4
v 19 0 3
v 20 0 3
v 19 0 2
v 20 0 2
v 19 0 1
v 20 0 1
v 19 0 -1
v 20 0 -1
v 19 0 -2
v 20 0 -2
v 19 0 -3
v 20 0 -3
v 19 0 -4
v 20 0 -4
v 19 0 -5
v 20 0 -5
v 19 0 -6
v 20 0 -6
v 19 0 -7
v 20 0 -7
v 19 0 -8
v 20 0 -8
v -20 0 -20
v 20 0 -20
v -16 32 16
v 16 32 16
v -16 32 -16
v 16 32 -16
v -14 36 20
v -12 36 20
v -9 36 20
v -7 36 20
v -4 36 20
v -2 36 20
v 1 36 20
v 3 36 20
v 6 36 20
v 8 36 20
v 11 36 20
v 13 36 20
v -14 36 16
v -12 36 16
v -9 36 16
v -7 36 16
v -4 36 16
v -2 36 16
v 1 36 16
v 3 36 16
v 6 36 16
v 8 36 16
v 11 36 16
v 13 36 16
v 16 36 14
v 20 36 14
v -20 36 13
v -16 36 13
v 16 36 12
v 20 36 12
v -20 36 11
v -16 36 11
v 16 36 9
v 20 36 9
v -20 36 8
v -16 36 8
v 16 36 7
v 20 36 7
v -20 36 6
v -16 36 6
v 16 36 4
v 20 36 4
v -20 36 3
v -16 36 3
v 16 36 2
v 20 36 2
v -20 36 1
v -16 36 1
v 16 36 -1
v 20 36 -1
v -20 36 -2
v -16 36 -2
v 16 36 -3
v 20 36 -3
v -20 36 -4
v -16 36 -4
v 16 36 -6
v 20 36 -6
v -20 36 -7
v -16 36 -7
v 16 36 -8
v 20 36 -8
v -20 36 -9
v -16 36 -9
v 16 36 -11
v 20 36 -11
v -20 36 -12
v -16 36 -12
v 16 36 -13
v 20 36 -13
v -20 36 -14
v -16 36 -14
v -13 36 -16
v -11 36 -16
v -8 36 -16
v -6 36 -16
v -3 36 -16
v -1 36 -16
v 2 36 -16
v 4 36 -16
v 7 36 -16
v 9 36 -16
v 12 36 -16
v 14 36 -16
v -13 36 -20
v -11 36 -20
v -8 36 -20
v -6 36 -20
v -3 36 -20
v -1 36 -20
v 2 36 -20
v 4 36 -20
v 7 36 -20
v 9 36 -20
v 12 36 -20
v 14 36 -20
v -20 40 20
v -14 40 20
v -12 40 20
v -9 40 20
v -7 40 20
v -4 40 20
v -2 40 20
v 1 40 20
v 3 40 20
v 6 40 20
v 8 40 20
v 11 40 20
v 13 40 20
v 20 40 20
v -16 40 16
v -14 40 16
v -12 40 16
v -9 40 16
v -7 40 16
v -4 40 16
v -2 40 16
v 1 40 16
v 3 40 16
v 6 40 16
v 8 40 16
v 11 40 16
v 13 40 16
v 16 40 16
v 16 40 14
v 20 40 14
v -20 40 13
v -16 40 13
v 16 40 12
v 20 40 12
v -20 40 11
v -16 40 11
v 16 40 9
v 20 40 9
v -20 40 8
v -16 40 8
v 16 40 7
v 20 40 7
v -20 40 6
v -16 40 6
v 16 40 4
v 20 40 4
v -20 40 3
v -16 40 3
v 16 40 2
v 20 40 2
v -20 40 1
v -16 40 1
v 16 40 -1
v 20 40 -1
v -20 40 -2
v -16 40 -2
v 16 40 -3
v 20 40 -3
v -20 40 -4
v -16 40 -4
v 16 40 -6
v 20 40 -6
v -20 40 -7
v -16 40 -7
v 16 40 -8
v 20 40 -8
v -20 40 -9
v -16 40 -9
v 16 40 -11
v 20 40 -11
v -20 40 -12
v -16 40 -12
v 16 40 -13
v 20 40 -13
v -20 40 -14
v -16 40 -14
v -16 40 -16
v -13 40 -16
v -11 40 -16
v -8 40 -16
v -6 40 -16
v -3 40 -16
v -1 40 -16
v 2 40 -16
v 4 40 -16
v 7 40 -16
v 9 40 -16
v 12 40 -16
v 14 40 -16
v 16 40 -16
v -20 40 -20
v -13 40 -20
v -11 40 -20
v -8 40 -20
v -6 40 -20
v -3 40 -20
v -1 40 -20
v 2 40 -20
v 4 40 -20
v 7 40 -20
v 9 40 -20
v 12 40 -20
v 14 40 -20
v 20 40 -20

# faces
f 3/3/1 2/3/1 1/3/1
f 4/3/1 2/3/1 3/3/1
f 5/4/1 4/4/1 3/4/1
f 6/4/1 4/4/1 5/4/1
f 7/4/1 5/4/1 3/4/1
f 7/3/1 6/3/1 5/3/1
f 8/4/1 4/4/1 6/4/1
f 8/3/1 6/3/1 7/3/1
f 9/3/1 3/3/1 1/3/1
f 9/4/1 7/4/1 3/4/1
f 9/4/1 8/4/1 7/4/1
f 10/4/1 4/4/1 8/4/1
f 10/4/1 8/4/1 9/4/1
f 10/3/1 2/3/1 4/3/1
f 11/3/1 9/3/1 1/3/1
f 11/3/1 10/3/1 9/3/1
f 12/3/1 10/3/1 11/3/1
f 13/3/1 10/3/1 12/3/1
f 14/3/1 10/3/1 13/3/1
f 15/3/1 10/3/1 14/3/1
f 16/3/1 10/3/1 15/3/1
f 17/3/1 10/3/1 16/3/1
f 18/3/1 10/3/1 17/3/1
f 19/3/1 10/3/1 18/3/1
f 20/3/1 10/3/1 19/3/1
f 21/3/1 2/3/1 10/3/1
f 21/3/1 10/3/1 20/3/1
f 22/3/1 2/3/1 21/3/1
f 23/3/1 11/3/1 1/3/1
f 24/3/1 11/3/1 23/3/1
f 25/3/1 13/3/1 12/3/1
f 26/3/1 13/3/1 25/3/1
f 27/3/1 15/3/1 14/3/1
f 28/3/1 15/3/1 27/3/1
f 29/3/1 17/3/1 16/3/1
f 30/3/1 17/3/1 29/3/1
f 31/3/1 19/3/1 18/3/1
f 32/3/1 19/3/1 31/3/1
f 33/3/1 21/3/1 20/3/1
f 34/3/1 21/3/1 33/3/1
f 35/3/1 2/3/1 22/3/1
f 36/3/1 2/3/1 35/3/1
f 39/3/1 38/3/1 37/3/1
f 40/3/1 38/3/1 39/3/1
f 43/3/1 42/3/1 41/3/1
f 44/3/1 42/3/1 43/3/1
f 47/3/1 46/3/1 45/3/1
f 48/3/1 46/3/1 47/3/1
f 51/3/1 50/3/1 49/3/1
f 52/3/1 50/3/1 51/3/1
f 55/3/1 54/3/1 53/3/1
f 56/3/1 54/3/1 55/3/1
f 59/3/1 58/3/1 57/3/1
f 60/3/1 58/3/1 59/3/1
f 63/3/1 62/3/1 61/3/1
f 64/3/1 62/3/1 63/3/1
f 67/3/1 66/3/1 65/3/1
f 68/3/1 66/3/1 67/3/1
f 71/3/1 70/3/1 69/3/1
f 72/3/1 70/3/1 71/3/1
f 75/3/1 74/3/1 73/3/1
f 76/3/1 74/3/1 75/3/1
f 79/3/1 78/3/1 77/3/1
f 80/3/1 78/3/1 79/3/1
f 83/3/1 82/3/1 81/3/1
f 84/3/1 82/3/1 83/3/1
f 87/3/1 86/3/1 85/3/1
f 88/3/1 86/3/1 87/3/1
f 89/3/1 86/3/1 88/3/1
f 90/3/1 86/3/1 89/3/1
f 91/3/1 86/3/1 90/3/1
f 92/3/1 86/3/1 91/3/1
f 93/3/1 86/3/1 92/3/1
f 94/3/1 86/3/1 93/3/1
f 95/3/1 86/3/1 94/3/1
f 96/3/1 86/3/1 95/3/1
f 97/3/1 86/3/1 96/3/1
f 98/3/1 86/3/1 97/3/1
f 99/3/1 87/3/1 85/3/1
f 100/3/1 87/3/1 99/3/1
f 101/3/1 89/3/1 88/3/1
f 102/3/1 89/3/1 101/3/1
f 103/3/1 91/3/1 90/3/1
f 104/3/1 91/3/1 103/3/1
f 105/3/1 93/3/1 92/3/1
f 106/3/1 93/3/1 105/3/1
f 107/3/1 95/3/1 94/3/1
f 108/3/1 95/3/1 107/3/1
f 109/3/1 97/3/1 96/3/1
f 110/3/1 97/3/1 109/3/1
f 111/3/1 86/3/1 98/3/1
f 112/3/1 86/3/1 111/3/1
f 113/3/2 114/3/2 115/3/2
f 115/3/2 114/3/2 116/3/2
f 116/3/2 114/3/2 117/3/2
f 117/3/2 114/3/2 118/3/2
f 118/3/2 114/3/2 119/3/2
f 119/3/2 114/3/2 120/3/2
f 120/3/2 114/3/2 121/3/2
f 121/3/2 114/3/2 122/3/2
f 122/3/2 114/3/2 123/3/2
f 123/3/2 114/3/2 124/3/2
f 124/3/2 114/3/2 125/3/2
f 125/3/2 114/3/2 126/3/2
f 113/3/2 115/3/2 127/3/2
f 127/3/2 115/3/2 128/3/2
f 116/3/2 117/3/2 129/3/2
f 129/3/2 117/3/2 130/3/2
f 118/3/2 119/3/2 131/3/2
f 131/3/2 119/3/2 132/3/2
f 120/3/2 121/3/2 133/3/2
f 133/3/2 121/3/2 134/3/2
f 122/3/2 123/3/2 135/3/2
f 135/3/2 123/3/2 136/3/2
f 124/3/2 125/3/2 137/3/2
f 137/3/2 125/3/2 138/3/2
f 126/3/2 114/3/2 139/3/2
f 139/3/2 114/3/2 140/3/2
f 141/3/2 142/3/2 143/3/2
f 143/3/2 142/3/2 144/3/2
f 145/3/2 146/3/2 147/3/2
f 147/3/2 146/3/2 148/3/2
f 149/3/2 150/3/2 151/3/2
f 151/3/2 150/3/2 152/3/2
f 153/3/2 154/3/2 155/3/2
f 155/3/2 154/3/2 156/3/2
f 157/3/2 158/3/2 159/3/2
f 159/3/2 158/3/2 160/3/2
f 161/3/2 162/3/2 163/3/2
f 163/3/2 162/3/2 164/3/2
f 165/3/2 166/3/2 167/3/2
f 167/3/2 166/3/2 168/3/2
f 169/3/2 170/3/2 171/3/2
f 171/3/2 170/3/2 172/3/2
f 173/3/2 174/3/2 175/3/2
f 175/3/2 174/3/2 176/3/2
f 177/3/2 178/3/2 179/3/2
f 179/3/2 178/3/2 180/3/2
f 181/3/2 182/3/2 183/3/2
f 183/3/2 182/3/2 184/3/2
f 185/3/2 186/3/2 187/3/2
f 187/3/2 186/3/2 188/3/2
f 189/3/2 190/3/2 207/3/2
f 190/4/2 191/4/2 207/4/2
f 191/1/2 192/1/2 208/1/2
f 207/4/2 191/4/2 208/4/2
f 192/2/2 193/2/2 209/2/2
f 208/1/2 192/1/2 209/1/2
f 202/2/2 203/2/2 210/2/2
f 203/1/2 204/1/2 210/1/2
f 204/4/2 205/4/2 211/4/2
f 210/1/2 204/1/2 211/1/2
f 205/3/2 206/3/2 212/3/2
f 211/4/2 205/4/2 212/4/2
f 207/3/2 208/3/2 213/3/2
f 208/4/2 209/4/2 213/4/2
f 209/2/2 193/2/2 214/2/2
f 213/4/2 209/4/2 214/4/2
f 193/1/2 194/1/2 215/1/2
f 214/2/2 193/2/2 215/2/2
f 202/2/2 210/2/2 216/2/2
f 201/1/2 202/1/2 216/1/2
f 210/4/2 211/4/2 217/4/2
f 216/2/2 210/2/2 217/2/2
f 211/3/2 212/3/2 218/3/2
f 217/4/2 211/4/2 218/4/2
f 213/3/2 214/3/2 219/3/2
f 214/4/2 215/4/2 219/4/2
f 215/1/2 194/1/2 220/1/2
f 219/4/2 215/4/2 220/4/2
f 194/2/2 195/2/2 221/2/2
f 220/1/2 194/1/2 221/1/2
f 201/1/2 216/1/2 222/1/2
f 200/2/2 201/2/2 222/2/2
f 216/4/2 217/4/2 223/4/2
f 222/1/2 216/1/2 223/1/2
f 217/3/2 218/3/2 224/3/2
f 223/4/2 217/4/2 224/4/2
f 219/3/2 220/3/2 225/3/2
f 220/4/2 221/4/2 225/4/2
f 221/2/2 195/2/2 226/2/2
f 225/4/2 221/4/2 226/4/2
f 195/1/2 196/1/2 227/1/2
f 226/2/2 195/2/2 227/2/2
f 196/2/2 197/2/2 228/2/2
f 227/1/2 196/1/2 228/1/2
f 197/1/2 198/1/2 229/1/2
f 228/2/2 197/2/2 229/2/2
f 198/2/2 199/2/2 230/2/2
f 229/1/2 198/1/2 230/1/2
f 199/1/2 200/1/2 231/1/2
f 230/2/2 199/2/2 231/2/2
f 200/2/2 222/2/2 232/2/2
f 231/1/2 200/1/2 232/1/2
f 222/4/2 223/4/2 233/4/2
f 232/2/2 222/2/2 233/2/2
f 223/3/2 224/3/2 234/3/2
f 233/4/2 223/4/2 234/4/2
f 225/3/2 226/3/2 235/3/2
f 226/4/2 227/4/2 235/4/2
f 227/4/2 228/4/2 235/4/2
f 230/4/2 231/4/2 235/4/2
f 228/4/2 229/4/2 235/4/2
f 231/4/2 232/4/2 235/4/2
f 232/4/2 233/4/2 235/4/2
f 229/4/2 230/4/2 235/4/2
f 233/3/2 234/3/2 236/3/2
f 235/4/2 233/4/2 236/4/2
f 219/3/2 225/3/2 237/3/2
f 213/3/2 219/3/2 237/3/2
f 235/3/2 236/3/2 237/3/2
f 207/3/2 213/3/2 237/3/2
f 225/3/2 235/3/2 237/3/2
f 189/3/2 207/3/2 237/3/2
f 237/3/2 236/3/2 238/3/2
f 238/3/2 236/3/2 239/3/2
f 239/3/2 236/3/2 240/3/2
f 240/3/2 236/3/2 241/3/2
f 241/3/2 236/3/2 242/3/2
f 242/3/2 236/3/2 243/3/2
f 243/3/2 236/3/2 244/3/2
f 236/3/2 234/3/2 245/3/2
f 244/3/2 236/3/2 245/3/2
f 234/3/2 224/3/2 245/3/2
f 224/3/2 218/3/2 245/3/2
f 212/3/2 206/3/2 246/3/2
f 245/3/2 218/3/2 246/3/2
f 218/3/2 212/3/2 246/3/2
f 246/3/2 206/3/2 247/3/2
f 247/3/2 206/3/2 248/3/2
f 189/3/2 237/3/2 249/3/2
f 249/3/2 237/3/2 250/3/2
f 238/3/2 239/3/2 251/3/2
f 251/3/2 239/3/2 252/3/2
f 240/3/2 241/3/2 253/3/2
f 253/3/2 241/3/2 254/3/2
f 242/3/2 243/3/2 255/3/2
f 255/3/2 243/3/2 256/3/2
f 244/3/2 245/3/2 257/3/2
f 257/3/2 245/3/2 258/3/2
f 246/3/2 247/3/2 259/3/2
f 259/3/2 247/3/2 260/3/2
f 248/3/2 206/3/2 261/3/2
f 261/3/2 206/3/2 262/3/2
f 265/3/3 264/3/3 263/3/3
f 266/3/3 264/3/3 265/3/3
f 267/3/3 265/3/3 263/3/3
f 269/3/3 267/3/3 263/3/3
f 269/3/3 268/3/3 267/3/3
f 270/3/3 268/3/3 269/3/3
f 271/3/3 269/3/3 263/3/3
f 273/3/3 271/3/3 263/3/3
f 273/3/3 272/3/3 271/3/3
f 274/3/3 272/3/3 273/3/3
f 275/3/3 273/3/3 263/3/3
f 277/3/3 275/3/3 263/3/3
f 277/3/3 276/3/3 275/3/3
f 278/3/3 276/3/3 277/3/3
f 279/3/3 277/3/3 263/3/3
f 281/3/3 279/3/3 263/3/3
f 281/3/3 280/3/3 279/3/3
f 282/3/3 280/3/3 281/3/3
f 283/3/3 281/3/3 263/3/3
f 285/3/3 283/3/3 263/3/3
f 285/3/3 284/3/3 283/3/3
f 286/3/3 284/3/3 285/3/3
f 287/3/3 285/3/3 263/3/3
f 289/3/3 287/3/3 263/3/3
f 289/3/3 288/3/3 287/3/3
f 290/3/3 288/3/3 289/3/3
f 293/3/3 292/3/3 291/3/3
f 294/3/3 292/3/3 293/3/3
f 297/3/3 296/3/3 295/3/3
f 298/3/3 296/3/3 297/3/3
f 301/3/3 300/3/3 299/3/3
f 302/3/3 300/3/3 301/3/3
f 305/3/3 304/3/3 303/3/3
f 306/3/3 304/3/3 305/3/3
f 309/3/3 308/3/3 307/3/3
f 310/3/3 308/3/3 309/3/3
f 313/3/3 312/3/3 311/3/3
f 314/3/3 312/3/3 313/3/3
f 317/3/3 316/3/3 315/3/3
f 318/3/3 316/3/3 317/3/3
f 321/3/3 320/3/3 319/3/3
f 322/3/3 320/3/3 321/3/3
f 325/3/3 324/3/3 323/3/3
f 326/3/3 324/3/3 325/3/3
f 329/3/3 328/3/3 327/3/3
f 330/3/3 328/3/3 329/3/3
f 333/3/3 332/3/3 331/3/3
f 334/3/3 332/3/3 333/3/3
f 337/3/3 336/3/3 335/3/3
f 338/3/3 336/3/3 337/3/3
f 341/3/3 340/3/3 339/3/3
f 342/3/3 340/3/3 341/3/3
f 343/3/3 341/3/3 339/3/3
f 345/3/3 343/3/3 339/3/3
f 345/3/3 344/3/3 343/3/3
f 346/3/3 344/3/3 345/3/3
f 347/3/3 345/3/3 339/3/3
f 349/3/3 347/3/3 339/3/3
f 349/3/3 348/3/3 347/3/3
f 350/3/3 348/3/3 349/3/3
f 351/3/3 349/3/3 339/3/3
f 353/3/3 351/3/3 339/3/3
f 353/3/3 352/3/3 351/3/3
f 354/3/3 352/3/3 353/3/3
f 355/3/3 353/3/3 339/3/3
f 357/3/3 355/3/3 339/3/3
f 357/3/3 356/3/3 355/3/3
f 358/3/3 356/3/3 357/3/3
f 359/3/3 357/3/3 339/3/3
f 361/3/3 359/3/3 339/3/3
f 361/3/3 360/3/3 359/3/3
f 362/3/3 360/3/3 361/3/3
f 363/3/3 361/3/3 339/3/3
f 365/3/3 363/3/3 339/3/3
f 365/3/3 364/3/3 363/3/3
f 366/3/3 364/3/3 365/3/3
f 367/3/4 368/3/4 369/3/4
f 369/3/4 368/3/4 370/3/4
f 367/3/4 369/3/4 371/3/4
f 367/3/4 371/3/4 373/3/4
f 371/3/4 372/3/4 373/3/4
f 373/3/4 372/3/4 374/3/4
f 367/3/4 373/3/4 375/3/4
f 367/3/4 375/3/4 377/3/4
f 375/3/4 376/3/4 377/3/4
f 377/3/4 376/3/4 378/3/4
f 367/3/4 377/3/4 379/3/4
f 367/3/4 379/3/4 381/3/4
f 379/3/4 380/3/4 381/3/4
f 381/3/4 380/3/4 382/3/4
f 367/3/4 381/3/4 383/3/4
f 367/3/4 383/3/4 385/3/4
f 383/3/4 384/3/4 385/3/4
f 385/3/4 384/3/4 386/3/4
f 367/3/4 385/3/4 387/3/4
f 367/3/4 387/3/4 389/3/4
f 387/3/4 388/3/4 389/3/4
f 389/3/4 388/3/4 390/3/4
f 367/3/4 389/3/4 391/3/4
f 367/3/4 391/3/4 393/3/4
f 391/3/4 392/3/4 393/3/4
f 393/3/4 392/3/4 394/3/4
f 395/3/4 396/3/4 397/3/4
f 397/3/4 396/3/4 398/3/4
f 399/3/4 400/3/4 401/3/4
f 401/3/4 400/3/4 402/3/4
f 403/3/4 404/3/4 405/3/4
f 405/3/4 404/3/4 406/3/4
f 407/3/4 408/3/4 409/3/4
f 409/3/4 408/3/4 410/3/4
f 411/3/4 412/3/4 413/3/4
f 413/3/4 412/3/4 414/3/4
f 415/3/4 416/3/4 417/3/4
f 417/3/4 416/3/4 418/3/4
f 419/3/4 420/3/4 421/3/4
f 421/3/4 420/3/4 422/3/4
f 423/3/4 424/3/4 425/3/4
f 425/3/4 424/3/4 426/3/4
f 427/3/4 428/3/4 429/3/4
f 429/3/4 428/3/4 430/3/4
f 431/3/4 432/3/4 433/3/4
f 433/3/4 432/3/4 434/3/4
f 435/3/4 436/3/4 437/3/4
f 437/3/4 436/3/4 438/3/4
f 439/3/4 440/3/4 441/3/4
f 441/3/4 440/3/4 442/3/4
f 443/3/4 444/3/4 445/3/4
f 445/3/4 444/3/4 446/3/4
f 443/3/4 445/3/4 447/3/4
f 443/3/4 447/3/4 449/3/4
f 447/3/4 448/3/4 449/3/4
f 449/3/4 448/3/4 450/3/4
f 443/3/4 449/3/4 451/3/4
f 443/3/4 451/3/4 453/3/4
f 451/3/4 452/3/4 453/3/4
f 453/3/4 452/3/4 454/3/4
f 443/3/4 453/3/4 455/3/4
f 443/3/4 455/3/4 457/3/4
f 455/3/4 456/3/4 457/3/4
f 457/3/4 456/3/4 458/3/4
f 443/3/4 457/3/4 459/3/4
f 443/3/4 459/3/4 461/3/4
f 459/3/4 460/3/4 461/3/4
f 461/3/4 460/3/4 462/3/4
f 443/3/4 461/3/4 463/3/4
f 443/3/4 463/3/4 465/3/4
f 463/3/4 464/3/4 465/3/4
f 465/3/4 464/3/4 466/3/4
f 443/3/4 465/3/4 467/3/4
f 443/3/4 467/3/4 469/3/4
f 467/3/4 468/3/4 469/3/4
f 469/3/4 468/3/4 470/3/4
f 473/3/5 472/3/5 471/3/5
f 474/3/5 472/3/5 473/3/5
f 475/3/5 473/3/5 471/3/5
f 475/4/5 474/4/5 473/4/5
f 476/4/5 474/4/5 475/4/5
f 477/3/5 475/3/5 471/3/5
f 477/1/5 476/1/5 475/1/5
f 478/1/5 476/1/5 477/1/5
f 479/3/5 477/3/5 471/3/5
f 479/2/5 478/2/5 477/2/5
f 480/2/5 478/2/5 479/2/5
f 481/3/5 479/3/5 471/3/5
f 481/1/5 480/1/5 479/1/5
f 482/1/5 480/1/5 481/1/5
f 483/3/5 481/3/5 471/3/5
f 483/2/5 482/2/5 481/2/5
f 484/2/5 482/2/5 483/2/5
f 485/3/5 483/3/5 471/3/5
f 485/1/5 484/1/5 483/1/5
f 486/1/5 484/1/5 485/1/5
f 487/3/5 485/3/5 471/3/5
f 487/2/5 486/2/5 485/2/5
f 488/2/5 486/2/5 487/2/5
f 489/3/5 487/3/5 471/3/5
f 489/1/5 488/1/5 487/1/5
f 490/1/5 488/1/5 489/1/5
f 491/3/5 489/3/5 471/3/5
f 491/2/5 490/2/5 489/2/5
f 492/2/5 490/2/5 491/2/5
f 493/3/5 491/3/5 471/3/5
f 493/1/5 492/1/5 491/1/5
f 494/1/5 492/1/5 493/1/5
f 495/3/5 493/3/5 471/3/5
f 495/2/5 494/2/5 493/2/5
f 496/2/5 494/2/5 495/2/5
f 497/3/5 495/3/5 471/3/5
f 497/1/5 496/1/5 495/1/5
f 498/1/5 496/1/5 497/1/5
f 499/3/5 497/3/5 471/3/5
f 499/2/5 498/2/5 497/2/5
f 500/2/5 498/2/5 499/2/5
f 501/3/5 499/3/5 471/3/5
f 501/1/5 500/1/5 499/1/5
f 502/1/5 500/1/5 501/1/5
f 503/3/5 501/3/5 471/3/5
f 503/4/5 502/4/5 501/4/5
f 504/4/5 502/4/5 503/4/5
f 505/3/5 503/3/5 471/3/5
f 505/3/5 504/3/5 503/3/5
f 506/3/5 504/3/5 505/3/5
f 507/3/6 508/3/6 509/3/6
f 509/3/6 508/3/6 510/3/6
f 511/3/6 512/3/6 523/3/6
f 523/3/6 512/3/6 524/3/6
f 513/3/6 514/3/6 525/3/6
f 525/3/6 514/3/6 526/3/6
f 515/3/6 516/3/6 527/3/6
f 527/3/6 516/3/6 528/3/6
f 517/3/6 518/3/6 529/3/6
f 529/3/6 518/3/6 530/3/6
f 519/3/6 520/3/6 531/3/6
f 531/3/6 520/3/6 532/3/6
f 521/3/6 522/3/6 533/3/6
f 533/3/6 522/3/6 534/3/6
f 535/3/6 536/3/6 539/3/6
f 539/3/6 536/3/6 540/3/6
f 537/3/6 538/3/6 541/3/6
f 541/3/6 538/3/6 542/3/6
f 543/3/6 544/3/6 547/3/6
f 547/3/6 544/3/6 548/3/6
f 545/3/6 546/3/6 549/3/6
f 549/3/6 546/3/6 550/3/6
f 551/3/6 552/3/6 555/3/6
f 555/3/6 552/3/6 556/3/6
f 553/3/6 554/3/6 557/3/6
f 557/3/6 554/3/6 558/3/6
f 559/3/6 560/3/6 563/3/6
f 563/3/6 560/3/6 564/3/6
f 561/3/6 562/3/6 565/3/6
f 565/3/6 562/3/6 566/3/6
f 567/3/6 568/3/6 571/3/6
f 571/3/6 568/3/6 572/3/6
f 569/3/6 570/3/6 573/3/6
f 573/3/6 570/3/6 574/3/6
f 575/3/6 576/3/6 579/3/6
f 579/3/6 576/3/6 580/3/6
f 577/3/6 578/3/6 581/3/6
f 581/3/6 578/3/6 582/3/6
f 583/3/6 584/3/6 595/3/6
f 595/3/6 584/3/6 596/3/6
f 585/3/6 586/3/6 597/3/6
f 597/3/6 586/3/6 598/3/6
f 587/3/6 588/3/6 599/3/6
f 599/3/6 588/3/6 600/3/6
f 589/3/6 590/3/6 601/3/6
f 601/3/6 590/3/6 602/3/6
f 591/3/6 592/3/6 603/3/6
f 603/3/6 592/3/6 604/3/6
f 593/3/6 594/3/6 605/3/6
f 605/3/6 594/3/6 606/3/6
f 607/3/6 608/3/6 621/3/6
f 621/3/6 608/3/6 622/3/6
f 609/3/6 610/3/6 623/3/6
f 623/3/6 610/3/6 624/3/6
f 611/3/6 612/3/6 625/3/6
f 625/3/6 612/3/6 626/3/6
f 613/3/6 614/3/6 627/3/6
f 627/3/6 614/3/6 628/3/6
f 615/3/6 616/3/6 629/3/6
f 629/3/6 616/3/6 630/3/6
f 617/3/6 618/3/6 631/3/6
f 631/3/6 618/3/6 632/3/6
f 619/3/6 620/3/6 633/3/6
f 633/3/6 620/3/6 634/3/6
f 634/3/6 620/3/6 635/3/6
f 635/3/6 620/3/6 636/3/6
f 607/3/6 621/3/6 637/3/6
f 637/3/6 621/3/6 638/3/6
f 639/3/6 640/3/6 643/3/6
f 643/3/6 640/3/6 644/3/6
f 641/3/6 642/3/6 645/3/6
f 645/3/6 642/3/6 646/3/6
f 647/3/6 648/3/6 651/3/6
f 651/3/6 648/3/6 652/3/6
f 649/3/6 650/3/6 653/3/6
f 653/3/6 650/3/6 654/3/6
f 655/3/6 656/3/6 659/3/6
f 659/3/6 656/3/6 660/3/6
f 657/3/6 658/3/6 661/3/6
f 661/3/6 658/3/6 662/3/6
f 663/3/6 664/3/6 667/3/6
f 667/3/6 664/3/6 668/3/6
f 665/3/6 666/3/6 669/3/6
f 669/3/6 666/3/6 670/3/6
f 671/3/6 672/3/6 675/3/6
f 675/3/6 672/3/6 676/3/6
f 673/3/6 674/3/6 677/3/6
f 677/3/6 674/3/6 678/3/6
f 681/3/6 682/3/6 683/3/6
f 679/3/6 680/3/6 696/3/6
f 681/3/6 683/3/6 697/3/6
f 683/3/6 684/3/6 697/3/6
f 697/3/6 684/3/6 698/3/6
f 685/3/6 686/3/6 699/3/6
f 699/3/6 686/3/6 700/3/6
f 687/3/6 688/3/6 701/3/6
f 701/3/6 688/3/6 702/3/6
f 689/3/6 690/3/6 703/3/6
f 703/3/6 690/3/6 704/3/6
f 691/3/6 692/3/6 705/3/6
f 705/3/6 692/3/6 706/3/6
f 693/3/6 694/3/6 707/3/6
f 707/3/6 694/3/6 708/3/6
f 695/3/6 696/3/6 709/3/6
f 696/3/6 680/3/6 710/3/6
f 709/3/6 696/3/6 710/3/6
